<svg width="40" height="40" viewBox="0 0 40 40" fill="none" xmlns="http://www.w3.org/2000/svg">
<path fill-rule="evenodd" clip-rule="evenodd" d="M12.9163 12.5C12.9163 11.5698 13.0996 10.6487 13.4555 9.78933C13.8115 8.92994 14.3333 8.14908 14.991 7.49133C15.6487 6.83358 16.4296 6.31183 17.289 5.95585C18.1484 5.59988 19.0695 5.41667 19.9997 5.41667C20.9299 5.41667 21.851 5.59988 22.7104 5.95585C23.5697 6.31183 24.3506 6.83358 25.0083 7.49133C25.6661 8.14908 26.1879 8.92994 26.5438 9.78933C26.8998 10.6487 27.083 11.5698 27.083 12.5C27.083 14.3786 26.3367 16.1803 25.0083 17.5087C23.68 18.8371 21.8783 19.5833 19.9997 19.5833C18.1211 19.5833 16.3194 18.8371 14.991 17.5087C13.6626 16.1803 12.9163 14.3786 12.9163 12.5ZM19.9997 7.91667C18.7841 7.91667 17.6183 8.39955 16.7588 9.25909C15.8992 10.1186 15.4163 11.2844 15.4163 12.5C15.4163 13.7156 15.8992 14.8814 16.7588 15.7409C17.6183 16.6004 18.7841 17.0833 19.9997 17.0833C21.2153 17.0833 22.381 16.6004 23.2406 15.7409C24.1001 14.8814 24.583 13.7156 24.583 12.5C24.583 11.2844 24.1001 10.1186 23.2406 9.25909C22.381 8.39955 21.2153 7.91667 19.9997 7.91667ZM13.333 24.5833C12.3384 24.5833 11.3846 24.9784 10.6814 25.6817C9.9781 26.3849 9.58301 27.3388 9.58301 28.3333V30.3133C9.58301 30.3433 9.60467 30.37 9.63467 30.375C16.4997 31.495 23.5013 31.495 30.3647 30.375C30.3788 30.3718 30.3915 30.364 30.4009 30.3528C30.4102 30.3417 30.4156 30.3278 30.4163 30.3133V28.3333C30.4163 27.3388 30.0213 26.3849 29.318 25.6817C28.6147 24.9784 27.6609 24.5833 26.6663 24.5833H26.0997C26.0551 24.5841 26.0108 24.5908 25.968 24.6033L24.5263 25.075C21.585 26.0354 18.4144 26.0354 15.473 25.075L14.0297 24.6033C13.9879 24.5911 13.9448 24.5844 13.9013 24.5833H13.333ZM7.08301 28.3333C7.08301 26.6757 7.74149 25.086 8.91359 23.9139C10.0857 22.7418 11.6754 22.0833 13.333 22.0833H13.8997C14.2108 22.0844 14.513 22.1322 14.8063 22.2267L16.2497 22.6983C18.6864 23.4938 21.313 23.4938 23.7497 22.6983L25.193 22.2267C25.4847 22.1317 25.7913 22.0833 26.098 22.0833H26.6663C28.3239 22.0833 29.9137 22.7418 31.0858 23.9139C32.2579 25.086 32.9163 26.6757 32.9163 28.3333V30.3133C32.9163 31.57 32.0063 32.64 30.7663 32.8417C23.6357 34.0056 16.3636 34.0056 9.23301 32.8417C8.63331 32.743 8.08809 32.4347 7.69438 31.9718C7.30067 31.5088 7.08402 30.9211 7.08301 30.3133V28.3333Z" fill="#F58426"/>
</svg>
