<svg width="214" height="141" viewBox="0 0 214 141" fill="none" xmlns="http://www.w3.org/2000/svg">
<path d="M209.474 79.4121L171.351 41.2896C167.522 37.4599 161.255 36.9377 157.077 40.4192C154.64 42.5081 153.596 45.2933 153.596 48.2526C153.596 50.8637 154.64 53.4749 156.555 55.5638L179.881 78.7158H84.6617C67.0801 89.5085 43.4058 86.7233 28.7835 70.7084C13.813 54.1712 13.4648 28.7561 28.0872 11.8708L16.7722 0.555878C6.84994 11.5226 0.757292 26.145 0.931368 42.1599C1.10544 75.9306 29.1316 103.086 62.9023 103.086H176.574L156.381 123.279C152.377 127.283 152.377 134.072 156.555 138.076C160.559 141.905 167.348 141.383 171.177 137.553L209.3 99.4308C214.87 93.8604 214.87 84.8085 209.474 79.4121Z" fill="url(#paint0_linear_2018_123)"/>
<defs>
<linearGradient id="paint0_linear_2018_123" x1="179.462" y1="131.959" x2="80.7653" y2="51.5264" gradientUnits="userSpaceOnUse">
<stop stop-color="#15FFC7"/>
<stop offset="1" stop-color="#3ACECA"/>
</linearGradient>
</defs>
</svg>
