<svg width="40" height="40" viewBox="0 0 40 40" fill="none" xmlns="http://www.w3.org/2000/svg">
<path d="M23.9042 23.3448L25.6779 23.531V37.9688L20.7786 32.7371V24.414L22.2015 25.1089L23.9042 23.3448ZM16.0956 23.3448L14.3209 23.531V37.9688L19.2202 32.7371V24.414L17.7973 25.1089L16.0956 23.3448ZM29.5315 14.2995L30.1055 16.2975L28.3825 17.4592L28.2382 19.5351L26.2218 20.037L25.3778 21.9366L23.3106 21.7182L21.8672 23.2094L19.9999 22.2971L18.1325 23.2094L16.6892 21.7133L14.622 21.9316L13.778 20.0322L11.7616 19.5351L11.6173 17.4621L9.88934 16.2965L10.4634 14.2986L9.24512 12.6155L10.4673 10.9342L9.88934 8.94023L11.6134 7.77852L11.7577 5.70547L13.778 5.20844L14.622 3.30898L16.6892 3.52727L18.1325 2.03125L19.9999 2.94352L21.8672 2.03125L23.3106 3.52727L25.3778 3.30898L26.2218 5.20844L28.2382 5.71039L28.3825 7.78336L30.1055 8.94508L29.5315 10.943L30.7547 12.6155L29.5315 14.2995ZM25.6867 12.6155C25.6867 11.4992 25.3557 10.408 24.7355 9.47988C24.1154 8.55175 23.2339 7.82835 22.2026 7.40118C21.1713 6.97401 20.0365 6.86224 18.9417 7.08001C17.8469 7.29778 16.8412 7.83531 16.0519 8.62462C15.2626 9.41394 14.7251 10.4196 14.5073 11.5144C14.2895 12.6092 14.4013 13.744 14.8285 14.7753C15.2557 15.8066 15.9791 16.688 16.9072 17.3082C17.8353 17.9284 18.9265 18.2594 20.0428 18.2594C21.5389 18.257 22.9731 17.6617 24.031 16.6037C25.089 15.5458 25.6843 14.1116 25.6867 12.6155ZM20.0428 8.53086C19.2349 8.53086 18.4452 8.77041 17.7735 9.21922C17.1018 9.66803 16.5783 10.3059 16.2692 11.0523C15.96 11.7986 15.8791 12.6199 16.0367 13.4122C16.1943 14.2045 16.5833 14.9323 17.1545 15.5036C17.7258 16.0748 18.4536 16.4638 19.2459 16.6214C20.0382 16.779 20.8595 16.6982 21.6058 16.389C22.3522 16.0799 22.9901 15.5564 23.4389 14.8847C23.8877 14.213 24.1273 13.4233 24.1273 12.6155C24.1242 11.5334 23.6928 10.4966 22.9274 9.73171C22.162 8.96684 21.1248 8.53616 20.0428 8.53383V8.53086Z" fill="#F58426"/>
</svg>
