<svg width="40" height="40" viewBox="0 0 40 40" fill="none" xmlns="http://www.w3.org/2000/svg">
<path d="M20.0003 36.6667C17.6948 36.6667 15.7298 35.8539 14.1053 34.2283C12.4809 32.6028 11.6681 30.6378 11.667 28.3333V11.6667C11.667 9.36111 12.4798 7.39611 14.1053 5.77167C15.7309 4.14722 17.6959 3.33444 20.0003 3.33333C22.3048 3.33222 24.2703 4.145 25.897 5.77167C27.5237 7.39833 28.3359 9.36333 28.3337 11.6667V20H20.0003V23.3333C19.0837 23.3333 18.2992 23.66 17.647 24.3133C16.9948 24.9667 16.6681 25.7511 16.667 26.6667C16.667 27.5556 16.9937 28.3194 17.647 28.9583C18.3003 29.5972 19.0848 29.9444 20.0003 30V36.6667ZM23.3337 36.6667V35.7083C23.3337 34.2639 24.0281 33.2222 25.417 32.5833C26.8059 31.9444 28.3337 31.625 30.0003 31.625C31.667 31.625 33.1948 31.9444 34.5837 32.5833C35.9725 33.2222 36.667 34.2639 36.667 35.7083V36.6667H23.3337ZM30.0003 30C29.0837 30 28.2992 29.6739 27.647 29.0217C26.9948 28.3694 26.6681 27.5844 26.667 26.6667C26.6659 25.7489 26.9925 24.9644 27.647 24.3133C28.3014 23.6622 29.0859 23.3356 30.0003 23.3333C30.9148 23.3311 31.6998 23.6578 32.3553 24.3133C33.0109 24.9689 33.337 25.7533 33.3337 26.6667C33.3303 27.58 33.0042 28.365 32.3553 29.0217C31.7064 29.6783 30.9214 30.0044 30.0003 30ZM20.0003 28.3333C19.5281 28.3333 19.1325 28.1733 18.8137 27.8533C18.4948 27.5333 18.3348 27.1378 18.3337 26.6667C18.3325 26.1956 18.4925 25.8 18.8137 25.48C19.1348 25.16 19.5303 25 20.0003 25C20.4703 25 20.8664 25.16 21.1887 25.48C21.5109 25.8 21.6703 26.1956 21.667 26.6667C21.6637 27.1378 21.5037 27.5339 21.187 27.855C20.8703 28.1761 20.4748 28.3356 20.0003 28.3333ZM20.0003 16.6667C20.917 16.6667 21.702 16.3406 22.3553 15.6883C23.0087 15.0361 23.3348 14.2511 23.3337 13.3333C23.3325 12.4156 23.0064 11.6311 22.3553 10.98C21.7042 10.3289 20.9192 10.0022 20.0003 10C19.0814 9.99778 18.297 10.3244 17.647 10.98C16.997 11.6356 16.6703 12.42 16.667 13.3333C16.6637 14.2467 16.9903 15.0317 17.647 15.6883C18.3037 16.345 19.0881 16.6711 20.0003 16.6667Z" fill="#F58426"/>
</svg>
